STARTFONT 2.1
FONT --Cream-Regular-R-Normal--12-100-86-86-P-67-APPLE-ROMAN
SIZE 10 86 86
FONTBOUNDINGBOX 15 12 0 -3
METRICSSET 2
STARTPROPERTIES 19
FONT_ASCENT 9
FONT_DESCENT 3
PIXEL_SIZE 12
RESOLUTION_X 86
RESOLUTION_Y 86
POINT_SIZE 100
FACE_NAME "Cream Regular 10"
FOUNDRY ""
FAMILY_NAME "Cream"
WEIGHT_NAME "Regular"
RELATIVE_WEIGHT 50
SLANT "R"
SPACING "P"
SETWIDTH_NAME "Normal"
RELATIVE_SETWIDTH 50
ADD_STYLE_NAME ""
AVERAGE_WIDTH 67
CHARSET_REGISTRY "APPLE"
CHARSET_ENCODING "ROMAN"
ENDPROPERTIES
CHARS 129
STARTCHAR char00
ENCODING 0
SWIDTH 586 0
DWIDTH 7 0
BBX 0 0 0 -3
VVECTOR 0 -3
SWIDTH1 0 0
DWIDTH1 0 0
BITMAP 
ENDCHAR
STARTCHAR char01
ENCODING 1
SWIDTH 502 0
DWIDTH 6 0
BBX 5 9 0 0
VVECTOR 3 9
SWIDTH1 0 -1005
DWIDTH1 0 -12
BITMAP 
10
20
40
80
40
20
10
00
F8
ENDCHAR
STARTCHAR char02
ENCODING 2
SWIDTH 0 0
DWIDTH 0 0
BBX 0 0 0 -3
VVECTOR 0 -3
SWIDTH1 0 0
DWIDTH1 0 0
BITMAP 
ENDCHAR
STARTCHAR char03
ENCODING 3
SWIDTH 502 0
DWIDTH 6 0
BBX 4 9 1 -1
VVECTOR 3 9
SWIDTH1 0 -1005
DWIDTH1 0 -12
BITMAP 
60
90
90
60
00
60
90
90
60
ENDCHAR
STARTCHAR char04
ENCODING 4
SWIDTH 0 0
DWIDTH 0 0
BBX 0 0 0 -3
VVECTOR 0 -3
SWIDTH1 0 0
DWIDTH1 0 0
BITMAP 
ENDCHAR
STARTCHAR char05
ENCODING 5
SWIDTH 753 0
DWIDTH 9 0
BBX 9 7 0 0
VVECTOR 5 9
SWIDTH1 0 -1005
DWIDTH1 0 -12
BITMAP 
0080
0180
0300
1600
3C00
5800
9000
ENDCHAR
STARTCHAR char06
ENCODING 6
SWIDTH 586 0
DWIDTH 7 0
BBX 5 5 1 1
VVECTOR 4 9
SWIDTH1 0 -1005
DWIDTH1 0 -12
BITMAP 
F8
00
F8
00
F8
ENDCHAR
STARTCHAR char07
ENCODING 7
SWIDTH 670 0
DWIDTH 8 0
BBX 5 5 1 1
VVECTOR 4 9
SWIDTH1 0 -1005
DWIDTH1 0 -12
BITMAP 
70
88
88
88
70
ENDCHAR
STARTCHAR char08
ENCODING 8
SWIDTH 0 0
DWIDTH 0 0
BBX 0 0 0 -3
VVECTOR 0 -3
SWIDTH1 0 0
DWIDTH1 0 0
BITMAP 
ENDCHAR
STARTCHAR char09
ENCODING 9
SWIDTH 0 0
DWIDTH 0 0
BBX 0 0 0 -3
VVECTOR 0 -3
SWIDTH1 0 0
DWIDTH1 0 0
BITMAP 
ENDCHAR
STARTCHAR char0A
ENCODING 10
SWIDTH 0 0
DWIDTH 0 0
BBX 0 0 0 -3
VVECTOR 0 -3
SWIDTH1 0 0
DWIDTH1 0 0
BITMAP 
ENDCHAR
STARTCHAR char0B
ENCODING 11
SWIDTH 0 0
DWIDTH 0 0
BBX 0 0 0 -3
VVECTOR 0 -3
SWIDTH1 0 0
DWIDTH1 0 0
BITMAP 
ENDCHAR
STARTCHAR char0C
ENCODING 12
SWIDTH 0 0
DWIDTH 0 0
BBX 0 0 0 -3
VVECTOR 0 -3
SWIDTH1 0 0
DWIDTH1 0 0
BITMAP 
ENDCHAR
STARTCHAR char0D
ENCODING 13
SWIDTH 0 0
DWIDTH 0 0
BBX 0 0 0 -3
VVECTOR 0 -3
SWIDTH1 0 0
DWIDTH1 0 0
BITMAP 
ENDCHAR
STARTCHAR char0E
ENCODING 14
SWIDTH 670 0
DWIDTH 8 0
BBX 6 7 1 1
VVECTOR 4 9
SWIDTH1 0 -1005
DWIDTH1 0 -12
BITMAP 
08
10
FC
20
FC
40
80
ENDCHAR
STARTCHAR char0F
ENCODING 15
SWIDTH 921 0
DWIDTH 11 0
BBX 9 9 0 0
VVECTOR 5 9
SWIDTH1 0 -1005
DWIDTH1 0 -12
BITMAP 
0400
0200
0100
3F80
4100
8200
8400
A000
4000
ENDCHAR
STARTCHAR char10
ENCODING 16
SWIDTH 0 0
DWIDTH 0 0
BBX 0 0 0 -3
VVECTOR 0 -3
SWIDTH1 0 0
DWIDTH1 0 0
BITMAP 
ENDCHAR
STARTCHAR uni2318
ENCODING 17
SWIDTH 670 0
DWIDTH 8 0
BBX 7 10 0 -1
VVECTOR 4 9
SWIDTH1 0 -1005
DWIDTH1 0 -12
BITMAP 
10
28
44
C6
44
44
44
44
44
44
ENDCHAR
STARTCHAR uni2713
ENCODING 18
SWIDTH 502 0
DWIDTH 6 0
BBX 5 9 0 0
VVECTOR 3 9
SWIDTH1 0 -1005
DWIDTH1 0 -12
BITMAP 
40
20
10
08
10
20
40
00
F8
ENDCHAR
STARTCHAR diamond
ENCODING 19
SWIDTH 753 0
DWIDTH 9 0
BBX 6 9 1 0
VVECTOR 4 9
SWIDTH1 0 -1005
DWIDTH1 0 -12
BITMAP 
80
80
38
44
40
38
04
44
38
ENDCHAR
STARTCHAR uniF8FF
ENCODING 20
SWIDTH 1256 0
DWIDTH 15 0
BBX 13 11 2 -2
VVECTOR 9 9
SWIDTH1 0 -1005
DWIDTH1 0 -12
BITMAP 
C000
C000
C000
C000
C000
C000
C000
C000
C000
FFF8
FFF8
ENDCHAR
STARTCHAR char15
ENCODING 21
SWIDTH 670 0
DWIDTH 8 0
BBX 7 1 1 8
VVECTOR 5 9
SWIDTH1 0 -1005
DWIDTH1 0 -12
BITMAP 
FE
ENDCHAR
STARTCHAR char16
ENCODING 22
SWIDTH 753 0
DWIDTH 9 0
BBX 7 9 0 0
VVECTOR 4 9
SWIDTH1 0 -1005
DWIDTH1 0 -12
BITMAP 
04
08
18
24
44
C4
38
0C
02
ENDCHAR
STARTCHAR char17
ENCODING 23
SWIDTH 1005 0
DWIDTH 12 0
BBX 9 9 1 -1
VVECTOR 6 9
SWIDTH1 0 -1005
DWIDTH1 0 -12
BITMAP 
3E00
4100
8080
8880
9480
8880
8080
4100
3E00
ENDCHAR
STARTCHAR char18
ENCODING 24
SWIDTH 1005 0
DWIDTH 12 0
BBX 10 2 1 3
VVECTOR 6 9
SWIDTH1 0 -1005
DWIDTH1 0 -12
BITMAP 
5540
AA80
ENDCHAR
STARTCHAR char19
ENCODING 25
SWIDTH 921 0
DWIDTH 11 0
BBX 9 9 1 0
VVECTOR 6 9
SWIDTH1 0 -1005
DWIDTH1 0 -12
BITMAP 
FF80
FB80
FD80
FE80
8000
FE80
FD80
FB80
FF80
ENDCHAR
STARTCHAR char1A
ENCODING 26
SWIDTH 0 0
DWIDTH 0 0
BBX 0 0 0 -3
VVECTOR 0 -3
SWIDTH1 0 0
DWIDTH1 0 0
BITMAP 
ENDCHAR
STARTCHAR char1B
ENCODING 27
SWIDTH 753 0
DWIDTH 9 0
BBX 8 7 0 -2
VVECTOR 4 9
SWIDTH1 0 -1005
DWIDTH1 0 -12
BITMAP 
08
FC
02
01
02
FC
08
ENDCHAR
STARTCHAR char1C
ENCODING 28
SWIDTH 0 0
DWIDTH 0 0
BBX 0 0 0 -3
VVECTOR 0 -3
SWIDTH1 0 0
DWIDTH1 0 0
BITMAP 
ENDCHAR
STARTCHAR char1D
ENCODING 29
SWIDTH 921 0
DWIDTH 11 0
BBX 9 9 1 0
VVECTOR 6 9
SWIDTH1 0 -1005
DWIDTH1 0 -12
BITMAP 
FF80
8080
8080
8080
8080
8080
8080
8080
FF80
ENDCHAR
STARTCHAR char1E
ENCODING 30
SWIDTH 1256 0
DWIDTH 15 0
BBX 13 11 0 -2
VVECTOR 7 9
SWIDTH1 0 -1005
DWIDTH1 0 -12
BITMAP 
0018
0018
0018
0018
0018
0018
0018
0018
0018
FFF8
FFF8
ENDCHAR
STARTCHAR char1F
ENCODING 31
SWIDTH 0 0
DWIDTH 0 0
BBX 0 0 0 -3
VVECTOR 0 -3
SWIDTH1 0 0
DWIDTH1 0 0
BITMAP 
ENDCHAR
STARTCHAR space
ENCODING 32
SWIDTH 419 0
DWIDTH 5 0
BBX 0 0 0 -3
VVECTOR 0 -3
SWIDTH1 0 0
DWIDTH1 0 0
BITMAP 
ENDCHAR
STARTCHAR exclam
ENCODING 33
SWIDTH 335 0
DWIDTH 4 0
BBX 1 10 1 -1
VVECTOR 2 9
SWIDTH1 0 -1005
DWIDTH1 0 -12
BITMAP 
80
80
80
80
80
80
80
00
80
80
ENDCHAR
STARTCHAR quotedbl
ENCODING 34
SWIDTH 502 0
DWIDTH 6 0
BBX 3 4 1 5
VVECTOR 3 9
SWIDTH1 0 -1005
DWIDTH1 0 -12
BITMAP 
A0
A0
A0
A0
ENDCHAR
STARTCHAR numbersign
ENCODING 35
SWIDTH 753 0
DWIDTH 9 0
BBX 8 8 0 1
VVECTOR 4 9
SWIDTH1 0 -1005
DWIDTH1 0 -12
BITMAP 
12
12
7F
24
24
FE
48
48
ENDCHAR
STARTCHAR dollar
ENCODING 36
SWIDTH 753 0
DWIDTH 9 0
BBX 6 11 1 -2
VVECTOR 4 9
SWIDTH1 0 -1005
DWIDTH1 0 -12
BITMAP 
20
20
78
A4
A0
78
24
A4
78
20
20
ENDCHAR
STARTCHAR percent
ENCODING 37
SWIDTH 921 0
DWIDTH 11 0
BBX 9 9 1 0
VVECTOR 6 9
SWIDTH1 0 -1005
DWIDTH1 0 -12
BITMAP 
6000
9100
9200
6400
0800
1300
2480
4480
0300
ENDCHAR
STARTCHAR ampersand
ENCODING 38
SWIDTH 921 0
DWIDTH 11 0
BBX 8 7 1 0
VVECTOR 5 9
SWIDTH1 0 -1005
DWIDTH1 0 -12
BITMAP 
70
88
80
73
84
88
70
ENDCHAR
STARTCHAR quotesingle
ENCODING 39
SWIDTH 335 0
DWIDTH 4 0
BBX 1 4 1 5
VVECTOR 2 9
SWIDTH1 0 -1005
DWIDTH1 0 -12
BITMAP 
80
80
80
80
ENDCHAR
STARTCHAR parenleft
ENCODING 40
SWIDTH 419 0
DWIDTH 5 0
BBX 3 10 1 -1
VVECTOR 3 9
SWIDTH1 0 -1005
DWIDTH1 0 -12
BITMAP 
20
40
40
80
80
80
80
40
40
20
ENDCHAR
STARTCHAR parenright
ENCODING 41
SWIDTH 419 0
DWIDTH 5 0
BBX 3 10 1 -1
VVECTOR 3 9
SWIDTH1 0 -1005
DWIDTH1 0 -12
BITMAP 
80
40
40
20
20
20
20
40
40
80
ENDCHAR
STARTCHAR asterisk
ENCODING 42
SWIDTH 753 0
DWIDTH 9 0
BBX 7 7 1 1
VVECTOR 5 9
SWIDTH1 0 -1005
DWIDTH1 0 -12
BITMAP 
10
54
38
EE
38
54
10
ENDCHAR
STARTCHAR plus
ENCODING 43
SWIDTH 670 0
DWIDTH 8 0
BBX 7 7 1 1
VVECTOR 5 9
SWIDTH1 0 -1005
DWIDTH1 0 -12
BITMAP 
10
10
10
FE
10
10
10
ENDCHAR
STARTCHAR comma
ENCODING 44
SWIDTH 335 0
DWIDTH 4 0
BBX 2 4 1 -2
VVECTOR 2 9
SWIDTH1 0 -1005
DWIDTH1 0 -12
BITMAP 
C0
C0
40
80
ENDCHAR
STARTCHAR hyphen
ENCODING 45
SWIDTH 670 0
DWIDTH 8 0
BBX 6 1 1 4
VVECTOR 4 9
SWIDTH1 0 -1005
DWIDTH1 0 -12
BITMAP 
FC
ENDCHAR
STARTCHAR period
ENCODING 46
SWIDTH 335 0
DWIDTH 4 0
BBX 2 2 1 0
VVECTOR 2 9
SWIDTH1 0 -1005
DWIDTH1 0 -12
BITMAP 
C0
C0
ENDCHAR
STARTCHAR slash
ENCODING 47
SWIDTH 670 0
DWIDTH 8 0
BBX 5 9 1 -1
VVECTOR 4 9
SWIDTH1 0 -1005
DWIDTH1 0 -12
BITMAP 
08
10
10
20
20
40
40
80
80
ENDCHAR
STARTCHAR zero
ENCODING 48
SWIDTH 502 0
DWIDTH 6 0
BBX 5 8 0 0
VVECTOR 3 9
SWIDTH1 0 -1005
DWIDTH1 0 -12
BITMAP 
70
88
88
88
88
88
88
70
ENDCHAR
STARTCHAR one
ENCODING 49
SWIDTH 502 0
DWIDTH 6 0
BBX 2 8 1 0
VVECTOR 2 9
SWIDTH1 0 -1005
DWIDTH1 0 -12
BITMAP 
40
C0
40
40
40
40
40
40
ENDCHAR
STARTCHAR two
ENCODING 50
SWIDTH 502 0
DWIDTH 6 0
BBX 5 8 0 0
VVECTOR 3 9
SWIDTH1 0 -1005
DWIDTH1 0 -12
BITMAP 
70
88
08
10
20
40
80
F8
ENDCHAR
STARTCHAR three
ENCODING 51
SWIDTH 502 0
DWIDTH 6 0
BBX 5 8 0 0
VVECTOR 3 9
SWIDTH1 0 -1005
DWIDTH1 0 -12
BITMAP 
70
88
08
30
08
08
88
70
ENDCHAR
STARTCHAR four
ENCODING 52
SWIDTH 586 0
DWIDTH 7 0
BBX 5 8 0 0
VVECTOR 3 9
SWIDTH1 0 -1005
DWIDTH1 0 -12
BITMAP 
30
30
50
50
90
F8
10
10
ENDCHAR
STARTCHAR five
ENCODING 53
SWIDTH 502 0
DWIDTH 6 0
BBX 5 8 0 0
VVECTOR 3 9
SWIDTH1 0 -1005
DWIDTH1 0 -12
BITMAP 
F8
80
80
F0
08
08
88
70
ENDCHAR
STARTCHAR six
ENCODING 54
SWIDTH 502 0
DWIDTH 6 0
BBX 5 8 0 0
VVECTOR 3 9
SWIDTH1 0 -1005
DWIDTH1 0 -12
BITMAP 
38
40
80
F0
88
88
88
70
ENDCHAR
STARTCHAR seven
ENCODING 55
SWIDTH 502 0
DWIDTH 6 0
BBX 4 8 1 0
VVECTOR 3 9
SWIDTH1 0 -1005
DWIDTH1 0 -12
BITMAP 
F0
10
20
20
40
40
80
80
ENDCHAR
STARTCHAR eight
ENCODING 56
SWIDTH 502 0
DWIDTH 6 0
BBX 5 8 0 0
VVECTOR 3 9
SWIDTH1 0 -1005
DWIDTH1 0 -12
BITMAP 
70
88
88
70
88
88
88
70
ENDCHAR
STARTCHAR nine
ENCODING 57
SWIDTH 502 0
DWIDTH 6 0
BBX 5 8 0 0
VVECTOR 3 9
SWIDTH1 0 -1005
DWIDTH1 0 -12
BITMAP 
70
88
88
88
78
08
10
E0
ENDCHAR
STARTCHAR colon
ENCODING 58
SWIDTH 335 0
DWIDTH 4 0
BBX 2 6 1 0
VVECTOR 2 9
SWIDTH1 0 -1005
DWIDTH1 0 -12
BITMAP 
C0
C0
00
00
C0
C0
ENDCHAR
STARTCHAR semicolon
ENCODING 59
SWIDTH 335 0
DWIDTH 4 0
BBX 2 8 1 -2
VVECTOR 2 9
SWIDTH1 0 -1005
DWIDTH1 0 -12
BITMAP 
C0
C0
00
00
C0
C0
40
80
ENDCHAR
STARTCHAR less
ENCODING 60
SWIDTH 502 0
DWIDTH 6 0
BBX 4 7 1 1
VVECTOR 3 9
SWIDTH1 0 -1005
DWIDTH1 0 -12
BITMAP 
10
20
40
80
40
20
10
ENDCHAR
STARTCHAR equal
ENCODING 61
SWIDTH 670 0
DWIDTH 8 0
BBX 6 4 1 2
VVECTOR 4 9
SWIDTH1 0 -1005
DWIDTH1 0 -12
BITMAP 
FC
00
00
FC
ENDCHAR
STARTCHAR greater
ENCODING 62
SWIDTH 502 0
DWIDTH 6 0
BBX 4 7 1 1
VVECTOR 3 9
SWIDTH1 0 -1005
DWIDTH1 0 -12
BITMAP 
80
40
20
10
20
40
80
ENDCHAR
STARTCHAR question
ENCODING 63
SWIDTH 586 0
DWIDTH 7 0
BBX 5 9 1 0
VVECTOR 4 9
SWIDTH1 0 -1005
DWIDTH1 0 -12
BITMAP 
70
88
88
08
30
40
00
40
40
ENDCHAR
STARTCHAR at
ENCODING 64
SWIDTH 1088 0
DWIDTH 13 0
BBX 10 11 1 -2
VVECTOR 6 9
SWIDTH1 0 -1005
DWIDTH1 0 -12
BITMAP 
3F00
4080
8040
8E40
9240
9240
9240
9680
8B00
4000
3800
ENDCHAR
STARTCHAR A
ENCODING 65
SWIDTH 753 0
DWIDTH 9 0
BBX 7 9 1 0
VVECTOR 5 9
SWIDTH1 0 -1005
DWIDTH1 0 -12
BITMAP 
10
10
38
28
44
7C
82
82
82
ENDCHAR
STARTCHAR B
ENCODING 66
SWIDTH 586 0
DWIDTH 7 0
BBX 5 9 1 0
VVECTOR 4 9
SWIDTH1 0 -1005
DWIDTH1 0 -12
BITMAP 
F0
88
88
88
F0
88
88
88
F0
ENDCHAR
STARTCHAR C
ENCODING 67
SWIDTH 753 0
DWIDTH 9 0
BBX 7 9 1 0
VVECTOR 5 9
SWIDTH1 0 -1005
DWIDTH1 0 -12
BITMAP 
3C
42
80
80
80
80
80
42
3C
ENDCHAR
STARTCHAR D
ENCODING 68
SWIDTH 753 0
DWIDTH 9 0
BBX 7 9 1 0
VVECTOR 5 9
SWIDTH1 0 -1005
DWIDTH1 0 -12
BITMAP 
F8
84
82
82
82
82
82
84
F8
ENDCHAR
STARTCHAR E
ENCODING 69
SWIDTH 502 0
DWIDTH 6 0
BBX 4 9 1 0
VVECTOR 3 9
SWIDTH1 0 -1005
DWIDTH1 0 -12
BITMAP 
F0
80
80
80
E0
80
80
80
F0
ENDCHAR
STARTCHAR F
ENCODING 70
SWIDTH 502 0
DWIDTH 6 0
BBX 4 9 1 0
VVECTOR 3 9
SWIDTH1 0 -1005
DWIDTH1 0 -12
BITMAP 
F0
80
80
80
E0
80
80
80
80
ENDCHAR
STARTCHAR G
ENCODING 71
SWIDTH 753 0
DWIDTH 9 0
BBX 7 9 1 0
VVECTOR 5 9
SWIDTH1 0 -1005
DWIDTH1 0 -12
BITMAP 
3C
42
80
80
8E
82
82
42
3C
ENDCHAR
STARTCHAR H
ENCODING 72
SWIDTH 670 0
DWIDTH 8 0
BBX 6 9 1 0
VVECTOR 4 9
SWIDTH1 0 -1005
DWIDTH1 0 -12
BITMAP 
84
84
84
84
FC
84
84
84
84
ENDCHAR
STARTCHAR I
ENCODING 73
SWIDTH 251 0
DWIDTH 3 0
BBX 1 9 1 0
VVECTOR 2 9
SWIDTH1 0 -1005
DWIDTH1 0 -12
BITMAP 
80
80
80
80
80
80
80
80
80
ENDCHAR
STARTCHAR J
ENCODING 74
SWIDTH 335 0
DWIDTH 4 0
BBX 3 11 0 -2
VVECTOR 2 9
SWIDTH1 0 -1005
DWIDTH1 0 -12
BITMAP 
20
20
20
20
20
20
20
20
20
40
80
ENDCHAR
STARTCHAR K
ENCODING 75
SWIDTH 670 0
DWIDTH 8 0
BBX 6 9 1 0
VVECTOR 4 9
SWIDTH1 0 -1005
DWIDTH1 0 -12
BITMAP 
88
90
A0
C0
C0
A0
90
88
84
ENDCHAR
STARTCHAR L
ENCODING 76
SWIDTH 502 0
DWIDTH 6 0
BBX 4 9 1 0
VVECTOR 3 9
SWIDTH1 0 -1005
DWIDTH1 0 -12
BITMAP 
80
80
80
80
80
80
80
80
F0
ENDCHAR
STARTCHAR M
ENCODING 77
SWIDTH 921 0
DWIDTH 11 0
BBX 9 9 1 0
VVECTOR 6 9
SWIDTH1 0 -1005
DWIDTH1 0 -12
BITMAP 
8080
C180
C180
A280
A280
9480
9480
8880
8880
ENDCHAR
STARTCHAR N
ENCODING 78
SWIDTH 670 0
DWIDTH 8 0
BBX 6 9 1 0
VVECTOR 4 9
SWIDTH1 0 -1005
DWIDTH1 0 -12
BITMAP 
84
C4
C4
A4
A4
94
8C
8C
84
ENDCHAR
STARTCHAR O
ENCODING 79
SWIDTH 837 0
DWIDTH 10 0
BBX 8 9 1 0
VVECTOR 5 9
SWIDTH1 0 -1005
DWIDTH1 0 -12
BITMAP 
3C
42
81
81
81
81
81
42
3C
ENDCHAR
STARTCHAR P
ENCODING 80
SWIDTH 586 0
DWIDTH 7 0
BBX 5 9 1 0
VVECTOR 4 9
SWIDTH1 0 -1005
DWIDTH1 0 -12
BITMAP 
F0
88
88
88
F0
80
80
80
80
ENDCHAR
STARTCHAR Q
ENCODING 81
SWIDTH 837 0
DWIDTH 10 0
BBX 8 11 1 -2
VVECTOR 5 9
SWIDTH1 0 -1005
DWIDTH1 0 -12
BITMAP 
3C
42
81
81
81
81
81
42
3C
02
01
ENDCHAR
STARTCHAR R
ENCODING 82
SWIDTH 586 0
DWIDTH 7 0
BBX 5 9 1 0
VVECTOR 4 9
SWIDTH1 0 -1005
DWIDTH1 0 -12
BITMAP 
F0
88
88
88
F0
A0
90
90
88
ENDCHAR
STARTCHAR S
ENCODING 83
SWIDTH 502 0
DWIDTH 6 0
BBX 4 9 1 0
VVECTOR 3 9
SWIDTH1 0 -1005
DWIDTH1 0 -12
BITMAP 
60
90
80
80
60
10
10
90
60
ENDCHAR
STARTCHAR T
ENCODING 84
SWIDTH 670 0
DWIDTH 8 0
BBX 6 9 1 0
VVECTOR 4 9
SWIDTH1 0 -1005
DWIDTH1 0 -12
BITMAP 
FC
20
20
20
20
20
20
20
20
ENDCHAR
STARTCHAR U
ENCODING 85
SWIDTH 670 0
DWIDTH 8 0
BBX 6 9 1 0
VVECTOR 4 9
SWIDTH1 0 -1005
DWIDTH1 0 -12
BITMAP 
84
84
84
84
84
84
8C
94
64
ENDCHAR
STARTCHAR V
ENCODING 86
SWIDTH 753 0
DWIDTH 9 0
BBX 7 9 1 0
VVECTOR 5 9
SWIDTH1 0 -1005
DWIDTH1 0 -12
BITMAP 
82
82
44
44
28
28
28
10
10
ENDCHAR
STARTCHAR W
ENCODING 87
SWIDTH 1088 0
DWIDTH 13 0
BBX 11 9 1 0
VVECTOR 7 9
SWIDTH1 0 -1005
DWIDTH1 0 -12
BITMAP 
8420
8420
4440
4440
4440
2A80
2A80
1100
1100
ENDCHAR
STARTCHAR X
ENCODING 88
SWIDTH 586 0
DWIDTH 7 0
BBX 5 9 1 0
VVECTOR 4 9
SWIDTH1 0 -1005
DWIDTH1 0 -12
BITMAP 
88
88
50
70
20
70
50
88
88
ENDCHAR
STARTCHAR Y
ENCODING 89
SWIDTH 753 0
DWIDTH 9 0
BBX 7 9 1 0
VVECTOR 5 9
SWIDTH1 0 -1005
DWIDTH1 0 -12
BITMAP 
82
44
44
28
10
10
10
10
10
ENDCHAR
STARTCHAR Z
ENCODING 90
SWIDTH 670 0
DWIDTH 8 0
BBX 6 9 1 0
VVECTOR 4 9
SWIDTH1 0 -1005
DWIDTH1 0 -12
BITMAP 
FC
04
08
10
20
40
80
80
FC
ENDCHAR
STARTCHAR bracketleft
ENCODING 91
SWIDTH 419 0
DWIDTH 5 0
BBX 3 11 1 -2
VVECTOR 3 9
SWIDTH1 0 -1005
DWIDTH1 0 -12
BITMAP 
E0
80
80
80
80
80
80
80
80
80
E0
ENDCHAR
STARTCHAR backslash
ENCODING 92
SWIDTH 670 0
DWIDTH 8 0
BBX 5 10 2 -1
VVECTOR 5 9
SWIDTH1 0 -1005
DWIDTH1 0 -12
BITMAP 
80
80
40
40
20
20
10
10
08
08
ENDCHAR
STARTCHAR bracketright
ENCODING 93
SWIDTH 335 0
DWIDTH 4 0
BBX 3 11 1 -2
VVECTOR 3 9
SWIDTH1 0 -1005
DWIDTH1 0 -12
BITMAP 
E0
20
20
20
20
20
20
20
20
20
E0
ENDCHAR
STARTCHAR asciicircum
ENCODING 94
SWIDTH 670 0
DWIDTH 8 0
BBX 7 9 0 0
VVECTOR 4 9
SWIDTH1 0 -1005
DWIDTH1 0 -12
BITMAP 
10
38
54
92
10
10
10
10
10
ENDCHAR
STARTCHAR underscore
ENCODING 95
SWIDTH 837 0
DWIDTH 10 0
BBX 8 7 1 1
VVECTOR 5 9
SWIDTH1 0 -1005
DWIDTH1 0 -12
BITMAP 
10
20
40
FF
40
20
10
ENDCHAR
STARTCHAR char60
ENCODING 96
SWIDTH 0 0
DWIDTH 0 0
BBX 0 0 0 -3
VVECTOR 0 -3
SWIDTH1 0 0
DWIDTH1 0 0
BITMAP 
ENDCHAR
STARTCHAR a
ENCODING 97
SWIDTH 586 0
DWIDTH 7 0
BBX 7 7 0 0
VVECTOR 4 9
SWIDTH1 0 -1005
DWIDTH1 0 -12
BITMAP 
38
48
88
88
9A
AC
48
ENDCHAR
STARTCHAR b
ENCODING 98
SWIDTH 502 0
DWIDTH 6 0
BBX 5 9 0 0
VVECTOR 3 9
SWIDTH1 0 -1005
DWIDTH1 0 -12
BITMAP 
80
80
B0
C8
88
88
88
90
E0
ENDCHAR
STARTCHAR c
ENCODING 99
SWIDTH 502 0
DWIDTH 6 0
BBX 5 7 0 0
VVECTOR 3 9
SWIDTH1 0 -1005
DWIDTH1 0 -12
BITMAP 
38
40
80
80
88
90
60
ENDCHAR
STARTCHAR d
ENCODING 100
SWIDTH 586 0
DWIDTH 7 0
BBX 7 9 0 0
VVECTOR 4 9
SWIDTH1 0 -1005
DWIDTH1 0 -12
BITMAP 
08
08
38
48
88
88
98
AA
4C
ENDCHAR
STARTCHAR e
ENCODING 101
SWIDTH 502 0
DWIDTH 6 0
BBX 5 7 0 0
VVECTOR 3 9
SWIDTH1 0 -1005
DWIDTH1 0 -12
BITMAP 
30
48
90
A0
C8
90
60
ENDCHAR
STARTCHAR f
ENCODING 102
SWIDTH 419 0
DWIDTH 5 0
BBX 4 12 0 -3
VVECTOR 2 9
SWIDTH1 0 -1005
DWIDTH1 0 -12
BITMAP 
30
40
40
F0
40
40
40
40
40
40
40
40
ENDCHAR
STARTCHAR g
ENCODING 103
SWIDTH 502 0
DWIDTH 6 0
BBX 5 10 0 -3
VVECTOR 3 9
SWIDTH1 0 -1005
DWIDTH1 0 -12
BITMAP 
38
48
88
88
98
A8
48
08
10
60
ENDCHAR
STARTCHAR h
ENCODING 104
SWIDTH 586 0
DWIDTH 7 0
BBX 7 9 0 0
VVECTOR 4 9
SWIDTH1 0 -1005
DWIDTH1 0 -12
BITMAP 
80
80
B0
C8
88
88
88
8A
8C
ENDCHAR
STARTCHAR i
ENCODING 105
SWIDTH 335 0
DWIDTH 4 0
BBX 4 9 0 0
VVECTOR 2 9
SWIDTH1 0 -1005
DWIDTH1 0 -12
BITMAP 
40
00
40
C0
40
40
40
50
60
ENDCHAR
STARTCHAR j
ENCODING 106
SWIDTH 419 0
DWIDTH 5 0
BBX 3 12 0 -3
VVECTOR 2 9
SWIDTH1 0 -1005
DWIDTH1 0 -12
BITMAP 
20
00
20
60
20
20
20
20
20
20
40
80
ENDCHAR
STARTCHAR k
ENCODING 107
SWIDTH 586 0
DWIDTH 7 0
BBX 6 9 0 0
VVECTOR 3 9
SWIDTH1 0 -1005
DWIDTH1 0 -12
BITMAP 
80
80
B0
C8
88
F0
A0
90
8C
ENDCHAR
STARTCHAR l
ENCODING 108
SWIDTH 251 0
DWIDTH 3 0
BBX 3 9 0 0
VVECTOR 2 9
SWIDTH1 0 -1005
DWIDTH1 0 -12
BITMAP 
80
80
80
80
80
80
80
A0
C0
ENDCHAR
STARTCHAR m
ENCODING 109
SWIDTH 1005 0
DWIDTH 12 0
BBX 12 7 0 0
VVECTOR 6 9
SWIDTH1 0 -1005
DWIDTH1 0 -12
BITMAP 
D980
6640
4440
4440
4440
4450
4460
ENDCHAR
STARTCHAR n
ENCODING 110
SWIDTH 670 0
DWIDTH 8 0
BBX 8 7 0 0
VVECTOR 4 9
SWIDTH1 0 -1005
DWIDTH1 0 -12
BITMAP 
D8
64
44
44
44
45
46
ENDCHAR
STARTCHAR o
ENCODING 111
SWIDTH 502 0
DWIDTH 6 0
BBX 5 7 0 0
VVECTOR 3 9
SWIDTH1 0 -1005
DWIDTH1 0 -12
BITMAP 
70
88
88
88
88
88
70
ENDCHAR
STARTCHAR p
ENCODING 112
SWIDTH 586 0
DWIDTH 7 0
BBX 6 10 0 -3
VVECTOR 3 9
SWIDTH1 0 -1005
DWIDTH1 0 -12
BITMAP 
58
E4
44
44
44
48
70
40
40
40
ENDCHAR
STARTCHAR q
ENCODING 113
SWIDTH 586 0
DWIDTH 7 0
BBX 7 10 0 -3
VVECTOR 4 9
SWIDTH1 0 -1005
DWIDTH1 0 -12
BITMAP 
38
48
88
88
98
A8
48
08
0A
0C
ENDCHAR
STARTCHAR r
ENCODING 114
SWIDTH 419 0
DWIDTH 5 0
BBX 5 7 0 0
VVECTOR 3 9
SWIDTH1 0 -1005
DWIDTH1 0 -12
BITMAP 
58
E0
40
40
40
40
40
ENDCHAR
STARTCHAR s
ENCODING 115
SWIDTH 502 0
DWIDTH 6 0
BBX 5 7 0 0
VVECTOR 3 9
SWIDTH1 0 -1005
DWIDTH1 0 -12
BITMAP 
70
88
80
70
08
88
70
ENDCHAR
STARTCHAR t
ENCODING 116
SWIDTH 419 0
DWIDTH 5 0
BBX 4 7 0 0
VVECTOR 2 9
SWIDTH1 0 -1005
DWIDTH1 0 -12
BITMAP 
70
C0
40
40
40
50
60
ENDCHAR
STARTCHAR u
ENCODING 117
SWIDTH 670 0
DWIDTH 8 0
BBX 8 7 0 0
VVECTOR 4 9
SWIDTH1 0 -1005
DWIDTH1 0 -12
BITMAP 
44
C4
44
44
4C
55
26
ENDCHAR
STARTCHAR v
ENCODING 118
SWIDTH 586 0
DWIDTH 7 0
BBX 6 7 0 0
VVECTOR 3 9
SWIDTH1 0 -1005
DWIDTH1 0 -12
BITMAP 
C8
44
44
44
48
50
60
ENDCHAR
STARTCHAR w
ENCODING 119
SWIDTH 921 0
DWIDTH 11 0
BBX 10 7 0 0
VVECTOR 5 9
SWIDTH1 0 -1005
DWIDTH1 0 -12
BITMAP 
C480
4440
4440
4C40
5480
6500
4600
ENDCHAR
STARTCHAR x
ENCODING 120
SWIDTH 502 0
DWIDTH 6 0
BBX 5 7 0 0
VVECTOR 3 9
SWIDTH1 0 -1005
DWIDTH1 0 -12
BITMAP 
88
50
70
20
70
50
88
ENDCHAR
STARTCHAR y
ENCODING 121
SWIDTH 586 0
DWIDTH 7 0
BBX 6 10 0 -3
VVECTOR 3 9
SWIDTH1 0 -1005
DWIDTH1 0 -12
BITMAP 
44
C4
44
44
4C
54
24
04
08
30
ENDCHAR
STARTCHAR z
ENCODING 122
SWIDTH 502 0
DWIDTH 6 0
BBX 5 7 0 0
VVECTOR 3 9
SWIDTH1 0 -1005
DWIDTH1 0 -12
BITMAP 
F8
08
10
20
40
80
F8
ENDCHAR
STARTCHAR braceleft
ENCODING 123
SWIDTH 419 0
DWIDTH 5 0
BBX 4 10 0 -2
VVECTOR 2 9
SWIDTH1 0 -1005
DWIDTH1 0 -12
BITMAP 
30
40
40
40
80
80
40
40
40
30
ENDCHAR
STARTCHAR bar
ENCODING 124
SWIDTH 419 0
DWIDTH 5 0
BBX 1 12 2 -3
VVECTOR 3 9
SWIDTH1 0 -1005
DWIDTH1 0 -12
BITMAP 
80
80
80
80
80
80
80
80
80
80
80
80
ENDCHAR
STARTCHAR braceright
ENCODING 125
SWIDTH 419 0
DWIDTH 5 0
BBX 4 10 1 -2
VVECTOR 3 9
SWIDTH1 0 -1005
DWIDTH1 0 -12
BITMAP 
C0
20
20
20
10
10
20
20
20
C0
ENDCHAR
STARTCHAR asciitilde
ENCODING 126
SWIDTH 753 0
DWIDTH 9 0
BBX 7 3 1 5
VVECTOR 5 9
SWIDTH1 0 -1005
DWIDTH1 0 -12
BITMAP 
60
92
0C
ENDCHAR
STARTCHAR char7F
ENCODING 127
SWIDTH 335 0
DWIDTH 4 0
BBX 4 12 0 -3
VVECTOR 2 9
SWIDTH1 0 -1005
DWIDTH1 0 -12
BITMAP 
F0
90
90
90
90
90
90
90
90
90
90
F0
ENDCHAR
STARTCHAR missing
ENCODING -1
SWIDTH 1256 0
DWIDTH 15 0
BBX 11 9 2 -2
VVECTOR 8 9
SWIDTH1 0 -1005
DWIDTH1 0 -12
BITMAP 
FFE0
FFE0
FFE0
FFE0
FFE0
FFE0
FFE0
FFE0
FFE0
ENDCHAR
ENDFONT
